<svg xmlns="http://www.w3.org/2000/svg" version="1.1" xmlns:xlink="http://www.w3.org/1999/xlink" xmlns:svgjs="http://svgjs.com/svgjs" width="700" height="5000" preserveAspectRatio="none" viewBox="0 0 700 5000"><g mask="url(&quot;#SvgjsMask1260&quot;)" fill="none"><rect width="700" height="5000" x="0" y="0" fill="rgba(255, 255, 255, 1)"></rect><path d="M467 2801L795 2473" stroke-width="10" stroke="url(#SvgjsLinearGradient1261)" stroke-linecap="round" class="BottomLeft"></path><path d="M122 4502L-280 4904" stroke-width="10" stroke="url(#SvgjsLinearGradient1262)" stroke-linecap="round" class="TopRight"></path><path d="M340 346L577 109" stroke-width="8" stroke="url(#SvgjsLinearGradient1262)" stroke-linecap="round" class="TopRight"></path><path d="M283 3770L578 3475" stroke-width="8" stroke="url(#SvgjsLinearGradient1263)" stroke-linecap="round" class="TopRight"></path><path d="M50 2108L-158 2316" stroke-width="8" stroke="url(#SvgjsLinearGradient1262)" stroke-linecap="round" class="TopRight"></path><path d="M79 15L578 -484" stroke-width="10" stroke="url(#SvgjsLinearGradient1261)" stroke-linecap="round" class="BottomLeft"></path><path d="M98 4929L-81 5108" stroke-width="6" stroke="url(#SvgjsLinearGradient1262)" stroke-linecap="round" class="TopRight"></path><path d="M328 3671L-34 4033" stroke-width="8" stroke="url(#SvgjsLinearGradient1262)" stroke-linecap="round" class="TopRight"></path><path d="M223 4027L-71 4321" stroke-width="8" stroke="url(#SvgjsLinearGradient1264)" stroke-linecap="round" class="BottomLeft"></path><path d="M65 403L-169 637" stroke-width="10" stroke="url(#SvgjsLinearGradient1263)" stroke-linecap="round" class="TopRight"></path><path d="M364 2058L-18 2440" stroke-width="10" stroke="url(#SvgjsLinearGradient1264)" stroke-linecap="round" class="BottomLeft"></path><path d="M171 2396L-138 2705" stroke-width="6" stroke="url(#SvgjsLinearGradient1262)" stroke-linecap="round" class="TopRight"></path><path d="M31 2519L395 2155" stroke-width="8" stroke="url(#SvgjsLinearGradient1263)" stroke-linecap="round" class="TopRight"></path><path d="M422 225L-36 683" stroke-width="10" stroke="url(#SvgjsLinearGradient1262)" stroke-linecap="round" class="TopRight"></path><path d="M341 4205L608 3938" stroke-width="8" stroke="url(#SvgjsLinearGradient1261)" stroke-linecap="round" class="BottomLeft"></path><path d="M650 1808L904 1554" stroke-width="8" stroke="url(#SvgjsLinearGradient1261)" stroke-linecap="round" class="BottomLeft"></path><path d="M455 72L-13 540" stroke-width="10" stroke="url(#SvgjsLinearGradient1261)" stroke-linecap="round" class="BottomLeft"></path><path d="M40 4125L-428 4593" stroke-width="6" stroke="url(#SvgjsLinearGradient1262)" stroke-linecap="round" class="TopRight"></path><path d="M38 2958L452 2544" stroke-width="8" stroke="url(#SvgjsLinearGradient1264)" stroke-linecap="round" class="BottomLeft"></path><path d="M481 3432L927 2986" stroke-width="10" stroke="url(#SvgjsLinearGradient1264)" stroke-linecap="round" class="BottomLeft"></path><path d="M150 2215L-178 2543" stroke-width="10" stroke="url(#SvgjsLinearGradient1263)" stroke-linecap="round" class="TopRight"></path><path d="M189 3224L-287 3700" stroke-width="8" stroke="url(#SvgjsLinearGradient1263)" stroke-linecap="round" class="TopRight"></path><path d="M430 3130L931 2629" stroke-width="6" stroke="url(#SvgjsLinearGradient1263)" stroke-linecap="round" class="TopRight"></path><path d="M627 281L831 77" stroke-width="10" stroke="url(#SvgjsLinearGradient1261)" stroke-linecap="round" class="BottomLeft"></path><path d="M659 4451L352 4758" stroke-width="10" stroke="url(#SvgjsLinearGradient1264)" stroke-linecap="round" class="BottomLeft"></path><path d="M41 667L438 270" stroke-width="8" stroke="url(#SvgjsLinearGradient1263)" stroke-linecap="round" class="TopRight"></path><path d="M562 35L943 -346" stroke-width="10" stroke="url(#SvgjsLinearGradient1264)" stroke-linecap="round" class="BottomLeft"></path><path d="M295 3754L-152 4201" stroke-width="8" stroke="url(#SvgjsLinearGradient1261)" stroke-linecap="round" class="BottomLeft"></path><path d="M365 1459L621 1203" stroke-width="6" stroke="url(#SvgjsLinearGradient1261)" stroke-linecap="round" class="BottomLeft"></path><path d="M558 1253L892 919" stroke-width="6" stroke="url(#SvgjsLinearGradient1261)" stroke-linecap="round" class="BottomLeft"></path><path d="M158 2259L-210 2627" stroke-width="6" stroke="url(#SvgjsLinearGradient1264)" stroke-linecap="round" class="BottomLeft"></path><path d="M40 225L-258 523" stroke-width="8" stroke="url(#SvgjsLinearGradient1261)" stroke-linecap="round" class="BottomLeft"></path><path d="M2 3457L398 3061" stroke-width="10" stroke="url(#SvgjsLinearGradient1263)" stroke-linecap="round" class="TopRight"></path><path d="M510 4103L705 3908" stroke-width="10" stroke="url(#SvgjsLinearGradient1264)" stroke-linecap="round" class="BottomLeft"></path><path d="M304 4109L125 4288" stroke-width="10" stroke="url(#SvgjsLinearGradient1263)" stroke-linecap="round" class="TopRight"></path><path d="M122 4641L467 4296" stroke-width="10" stroke="url(#SvgjsLinearGradient1261)" stroke-linecap="round" class="BottomLeft"></path><path d="M9 507L324 192" stroke-width="6" stroke="url(#SvgjsLinearGradient1263)" stroke-linecap="round" class="TopRight"></path><path d="M537 2746L315 2968" stroke-width="10" stroke="url(#SvgjsLinearGradient1264)" stroke-linecap="round" class="BottomLeft"></path><path d="M585 4353L405 4533" stroke-width="10" stroke="url(#SvgjsLinearGradient1264)" stroke-linecap="round" class="BottomLeft"></path><path d="M471 3567L165 3873" stroke-width="6" stroke="url(#SvgjsLinearGradient1263)" stroke-linecap="round" class="TopRight"></path><path d="M82 2612L534 2160" stroke-width="8" stroke="url(#SvgjsLinearGradient1264)" stroke-linecap="round" class="BottomLeft"></path><path d="M280 3055L-237 3572" stroke-width="8" stroke="url(#SvgjsLinearGradient1262)" stroke-linecap="round" class="TopRight"></path><path d="M236 2619L703 2152" stroke-width="10" stroke="url(#SvgjsLinearGradient1262)" stroke-linecap="round" class="TopRight"></path><path d="M217 42L-67 326" stroke-width="10" stroke="url(#SvgjsLinearGradient1264)" stroke-linecap="round" class="BottomLeft"></path><path d="M33 2530L526 2037" stroke-width="10" stroke="url(#SvgjsLinearGradient1261)" stroke-linecap="round" class="BottomLeft"></path><path d="M210 1045L-160 1415" stroke-width="10" stroke="url(#SvgjsLinearGradient1263)" stroke-linecap="round" class="TopRight"></path><path d="M136 734L384 486" stroke-width="10" stroke="url(#SvgjsLinearGradient1261)" stroke-linecap="round" class="BottomLeft"></path><path d="M260 1118L705 673" stroke-width="10" stroke="url(#SvgjsLinearGradient1263)" stroke-linecap="round" class="TopRight"></path><path d="M312 459L815 -44" stroke-width="8" stroke="url(#SvgjsLinearGradient1261)" stroke-linecap="round" class="BottomLeft"></path><path d="M356 4585L-50 4991" stroke-width="10" stroke="url(#SvgjsLinearGradient1264)" stroke-linecap="round" class="BottomLeft"></path><path d="M62 2674L-188 2924" stroke-width="8" stroke="url(#SvgjsLinearGradient1261)" stroke-linecap="round" class="BottomLeft"></path><path d="M321 2557L-101 2979" stroke-width="6" stroke="url(#SvgjsLinearGradient1263)" stroke-linecap="round" class="TopRight"></path><path d="M662 4319L280 4701" stroke-width="6" stroke="url(#SvgjsLinearGradient1264)" stroke-linecap="round" class="BottomLeft"></path><path d="M617 710L364 963" stroke-width="8" stroke="url(#SvgjsLinearGradient1262)" stroke-linecap="round" class="TopRight"></path><path d="M371 4978L657 4692" stroke-width="10" stroke="url(#SvgjsLinearGradient1264)" stroke-linecap="round" class="BottomLeft"></path><path d="M432 4359L712 4079" stroke-width="6" stroke="url(#SvgjsLinearGradient1262)" stroke-linecap="round" class="TopRight"></path><path d="M131 3493L474 3150" stroke-width="8" stroke="url(#SvgjsLinearGradient1263)" stroke-linecap="round" class="TopRight"></path><path d="M187 126L598 -285" stroke-width="6" stroke="url(#SvgjsLinearGradient1262)" stroke-linecap="round" class="TopRight"></path><path d="M347 1625L789 1183" stroke-width="10" stroke="url(#SvgjsLinearGradient1261)" stroke-linecap="round" class="BottomLeft"></path><path d="M310 2032L-12 2354" stroke-width="8" stroke="url(#SvgjsLinearGradient1261)" stroke-linecap="round" class="BottomLeft"></path><path d="M505 4604L801 4308" stroke-width="6" stroke="url(#SvgjsLinearGradient1264)" stroke-linecap="round" class="BottomLeft"></path><path d="M447 1064L165 1346" stroke-width="6" stroke="url(#SvgjsLinearGradient1264)" stroke-linecap="round" class="BottomLeft"></path><path d="M294 1515L75 1734" stroke-width="6" stroke="url(#SvgjsLinearGradient1264)" stroke-linecap="round" class="BottomLeft"></path><path d="M638 2740L285 3093" stroke-width="6" stroke="url(#SvgjsLinearGradient1264)" stroke-linecap="round" class="BottomLeft"></path><path d="M416 2849L739 2526" stroke-width="6" stroke="url(#SvgjsLinearGradient1264)" stroke-linecap="round" class="BottomLeft"></path><path d="M321 1045L538 828" stroke-width="6" stroke="url(#SvgjsLinearGradient1264)" stroke-linecap="round" class="BottomLeft"></path><path d="M123 4858L646 4335" stroke-width="6" stroke="url(#SvgjsLinearGradient1262)" stroke-linecap="round" class="TopRight"></path><path d="M64 3999L-275 4338" stroke-width="6" stroke="url(#SvgjsLinearGradient1263)" stroke-linecap="round" class="TopRight"></path><path d="M327 3122L-107 3556" stroke-width="6" stroke="url(#SvgjsLinearGradient1261)" stroke-linecap="round" class="BottomLeft"></path><path d="M557 308L890 -25" stroke-width="10" stroke="url(#SvgjsLinearGradient1262)" stroke-linecap="round" class="TopRight"></path><path d="M42 4818L302 4558" stroke-width="10" stroke="url(#SvgjsLinearGradient1264)" stroke-linecap="round" class="BottomLeft"></path><path d="M623 3303L422 3504" stroke-width="8" stroke="url(#SvgjsLinearGradient1262)" stroke-linecap="round" class="TopRight"></path><path d="M494 73L118 449" stroke-width="10" stroke="url(#SvgjsLinearGradient1261)" stroke-linecap="round" class="BottomLeft"></path><path d="M452 1265L41 1676" stroke-width="6" stroke="url(#SvgjsLinearGradient1261)" stroke-linecap="round" class="BottomLeft"></path><path d="M183 2180L-293 2656" stroke-width="10" stroke="url(#SvgjsLinearGradient1262)" stroke-linecap="round" class="TopRight"></path><path d="M133 411L357 187" stroke-width="6" stroke="url(#SvgjsLinearGradient1261)" stroke-linecap="round" class="BottomLeft"></path><path d="M478 3314L192 3600" stroke-width="6" stroke="url(#SvgjsLinearGradient1263)" stroke-linecap="round" class="TopRight"></path><path d="M532 2636L709 2459" stroke-width="6" stroke="url(#SvgjsLinearGradient1263)" stroke-linecap="round" class="TopRight"></path><path d="M324 427L-8 759" stroke-width="8" stroke="url(#SvgjsLinearGradient1262)" stroke-linecap="round" class="TopRight"></path><path d="M301 2232L-190 2723" stroke-width="6" stroke="url(#SvgjsLinearGradient1261)" stroke-linecap="round" class="BottomLeft"></path><path d="M367 1549L192 1724" stroke-width="6" stroke="url(#SvgjsLinearGradient1263)" stroke-linecap="round" class="TopRight"></path><path d="M581 1956L393 2144" stroke-width="6" stroke="url(#SvgjsLinearGradient1261)" stroke-linecap="round" class="BottomLeft"></path><path d="M544 498L1045 -3" stroke-width="8" stroke="url(#SvgjsLinearGradient1263)" stroke-linecap="round" class="TopRight"></path><path d="M523 3659L1009 3173" stroke-width="6" stroke="url(#SvgjsLinearGradient1264)" stroke-linecap="round" class="BottomLeft"></path><path d="M277 4731L583 4425" stroke-width="8" stroke="url(#SvgjsLinearGradient1262)" stroke-linecap="round" class="TopRight"></path><path d="M168 4640L-68 4876" stroke-width="6" stroke="url(#SvgjsLinearGradient1261)" stroke-linecap="round" class="BottomLeft"></path><path d="M9 404L-288 701" stroke-width="8" stroke="url(#SvgjsLinearGradient1262)" stroke-linecap="round" class="TopRight"></path><path d="M203 983L-281 1467" stroke-width="6" stroke="url(#SvgjsLinearGradient1263)" stroke-linecap="round" class="TopRight"></path><path d="M153 286L507 -68" stroke-width="8" stroke="url(#SvgjsLinearGradient1262)" stroke-linecap="round" class="TopRight"></path><path d="M616 3497L114 3999" stroke-width="10" stroke="url(#SvgjsLinearGradient1264)" stroke-linecap="round" class="BottomLeft"></path><path d="M517 1427L86 1858" stroke-width="6" stroke="url(#SvgjsLinearGradient1262)" stroke-linecap="round" class="TopRight"></path><path d="M582 2225L1038 1769" stroke-width="6" stroke="url(#SvgjsLinearGradient1264)" stroke-linecap="round" class="BottomLeft"></path><path d="M279 4480L739 4020" stroke-width="10" stroke="url(#SvgjsLinearGradient1261)" stroke-linecap="round" class="BottomLeft"></path><path d="M620 2628L400 2848" stroke-width="6" stroke="url(#SvgjsLinearGradient1261)" stroke-linecap="round" class="BottomLeft"></path><path d="M630 4139L304 4465" stroke-width="10" stroke="url(#SvgjsLinearGradient1264)" stroke-linecap="round" class="BottomLeft"></path><path d="M649 4677L328 4998" stroke-width="6" stroke="url(#SvgjsLinearGradient1261)" stroke-linecap="round" class="BottomLeft"></path><path d="M524 2047L802 1769" stroke-width="10" stroke="url(#SvgjsLinearGradient1264)" stroke-linecap="round" class="BottomLeft"></path><path d="M399 1075L63 1411" stroke-width="8" stroke="url(#SvgjsLinearGradient1264)" stroke-linecap="round" class="BottomLeft"></path><path d="M353 1013L39 1327" stroke-width="10" stroke="url(#SvgjsLinearGradient1263)" stroke-linecap="round" class="TopRight"></path><path d="M564 3471L283 3752" stroke-width="10" stroke="url(#SvgjsLinearGradient1262)" stroke-linecap="round" class="TopRight"></path><path d="M16 1129L395 750" stroke-width="8" stroke="url(#SvgjsLinearGradient1261)" stroke-linecap="round" class="BottomLeft"></path><path d="M11 4470L-287 4768" stroke-width="6" stroke="url(#SvgjsLinearGradient1261)" stroke-linecap="round" class="BottomLeft"></path><path d="M412 1699L121 1990" stroke-width="10" stroke="url(#SvgjsLinearGradient1264)" stroke-linecap="round" class="BottomLeft"></path><path d="M131 3256L-76 3463" stroke-width="8" stroke="url(#SvgjsLinearGradient1263)" stroke-linecap="round" class="TopRight"></path><path d="M697 2974L1045 2626" stroke-width="10" stroke="url(#SvgjsLinearGradient1264)" stroke-linecap="round" class="BottomLeft"></path><path d="M436 3794L211 4019" stroke-width="6" stroke="url(#SvgjsLinearGradient1262)" stroke-linecap="round" class="TopRight"></path><path d="M169 2600L416 2353" stroke-width="10" stroke="url(#SvgjsLinearGradient1261)" stroke-linecap="round" class="BottomLeft"></path><path d="M314 4461L-65 4840" stroke-width="10" stroke="url(#SvgjsLinearGradient1263)" stroke-linecap="round" class="TopRight"></path><path d="M568 456L809 215" stroke-width="8" stroke="url(#SvgjsLinearGradient1263)" stroke-linecap="round" class="TopRight"></path><path d="M33 2417L-292 2742" stroke-width="10" stroke="url(#SvgjsLinearGradient1261)" stroke-linecap="round" class="BottomLeft"></path><path d="M366 1081L94 1353" stroke-width="10" stroke="url(#SvgjsLinearGradient1264)" stroke-linecap="round" class="BottomLeft"></path><path d="M464 2962L70 3356" stroke-width="10" stroke="url(#SvgjsLinearGradient1262)" stroke-linecap="round" class="TopRight"></path><path d="M526 2648L1014 2160" stroke-width="6" stroke="url(#SvgjsLinearGradient1261)" stroke-linecap="round" class="BottomLeft"></path><path d="M28 1591L-212 1831" stroke-width="6" stroke="url(#SvgjsLinearGradient1263)" stroke-linecap="round" class="TopRight"></path><path d="M218 2160L648 1730" stroke-width="8" stroke="url(#SvgjsLinearGradient1261)" stroke-linecap="round" class="BottomLeft"></path><path d="M518 1433L181 1770" stroke-width="8" stroke="url(#SvgjsLinearGradient1263)" stroke-linecap="round" class="TopRight"></path><path d="M98 2161L-367 2626" stroke-width="10" stroke="url(#SvgjsLinearGradient1261)" stroke-linecap="round" class="BottomLeft"></path><path d="M418 1966L935 1449" stroke-width="8" stroke="url(#SvgjsLinearGradient1261)" stroke-linecap="round" class="BottomLeft"></path><path d="M444 4753L781 4416" stroke-width="8" stroke="url(#SvgjsLinearGradient1263)" stroke-linecap="round" class="TopRight"></path><path d="M14 663L-386 1063" stroke-width="8" stroke="url(#SvgjsLinearGradient1264)" stroke-linecap="round" class="BottomLeft"></path><path d="M435 4638L119 4954" stroke-width="10" stroke="url(#SvgjsLinearGradient1261)" stroke-linecap="round" class="BottomLeft"></path><path d="M107 1635L-129 1871" stroke-width="10" stroke="url(#SvgjsLinearGradient1262)" stroke-linecap="round" class="TopRight"></path><path d="M115 3257L384 2988" stroke-width="6" stroke="url(#SvgjsLinearGradient1262)" stroke-linecap="round" class="TopRight"></path><path d="M478 2772L820 2430" stroke-width="10" stroke="url(#SvgjsLinearGradient1264)" stroke-linecap="round" class="BottomLeft"></path><path d="M122 1397L319 1200" stroke-width="8" stroke="url(#SvgjsLinearGradient1263)" stroke-linecap="round" class="TopRight"></path><path d="M649 851L425 1075" stroke-width="8" stroke="url(#SvgjsLinearGradient1261)" stroke-linecap="round" class="BottomLeft"></path><path d="M2 2303L518 1787" stroke-width="10" stroke="url(#SvgjsLinearGradient1263)" stroke-linecap="round" class="TopRight"></path></g><defs><mask id="SvgjsMask1260"><rect width="700" height="5000" fill="#ffffff"></rect></mask><linearGradient x1="100%" y1="0%" x2="0%" y2="100%" id="SvgjsLinearGradient1261"><stop stop-color="rgba(0, 18, 58, 0)" offset="0"></stop><stop stop-color="rgba(0, 18, 58, 0.74)" offset="1"></stop></linearGradient><linearGradient x1="0%" y1="100%" x2="100%" y2="0%" id="SvgjsLinearGradient1262"><stop stop-color="rgba(255, 142, 0, 0)" offset="0"></stop><stop stop-color="rgba(255, 142, 0, 1)" offset="1"></stop></linearGradient><linearGradient x1="0%" y1="100%" x2="100%" y2="0%" id="SvgjsLinearGradient1263"><stop stop-color="rgba(0, 18, 58, 0)" offset="0"></stop><stop stop-color="rgba(0, 18, 58, 0.74)" offset="1"></stop></linearGradient><linearGradient x1="100%" y1="0%" x2="0%" y2="100%" id="SvgjsLinearGradient1264"><stop stop-color="rgba(255, 142, 0, 0)" offset="0"></stop><stop stop-color="rgba(255, 142, 0, 1)" offset="1"></stop></linearGradient></defs></svg>